<?xml version="1.0" encoding="UTF-8" standalone="no"?><svg width="736px" height="838px" viewBox="0 0 736 838" version="1.1" xmlns="http://www.w3.org/2000/svg" xmlns:xlink="http://www.w3.org/1999/xlink"><title>vector art</title><desc>Created with Sketch.</desc><defs></defs><g id="symbols" stroke="none" stroke-width="1" fill="none" fill-rule="evenodd"><g id="Login" transform="translate(-504.000000, 0.000000)"><g id="replaceable-image" transform="translate(504.000000, 0.000000)"><g id="vector-art" transform="translate(-78.000000, -82.000000)"><rect id="Rectangle-path" fill="#22343E" x="0" y="0.38" width="1127.55" height="921.62"></rect><polygon id="Shape" fill="#2F657B" points="0 3.06 0 599.24 298.14 301.43"></polygon><polygon id="Shape" fill="#438597" points="0 408.65 0 599.24 95.29 504.06"></polygon><polygon id="Shape" fill="#2F657B" points="918.21 921.95 818.63 822.3 718.89 921.95"></polygon><polygon id="Shape" fill="#3B758E" points="818.63 822.3 298.14 301.43 0 599.24 0 655.02 266.51 921.95 718.89 921.95"></polygon><polygon id="Shape" fill="#579EB2" points="512.67 921.95 95.29 504.06 0 599.24 0 654.97 267.06 921.95"></polygon><polygon id="Shape" fill="#344B57" points="266.51 921.95 0 655.02 0 921.95"></polygon><polygon id="Shape" fill="#A7C9D5" points="1128 0 799.58 0 1128 329.83"></polygon><polygon id="Shape" fill="#344B57" points="1128 329.83 799.58 0 599.9 0 298.14 301.43 818.63 822.3 1128 513.18"></polygon></g></g></g></g></svg>